<?xml version="1.0" encoding="UTF-8" standalone="no"?>
<svg
   xmlns:dc="http://purl.org/dc/elements/1.1/"
   xmlns:cc="http://creativecommons.org/ns#"
   xmlns:rdf="http://www.w3.org/1999/02/22-rdf-syntax-ns#"
   xmlns:svg="http://www.w3.org/2000/svg"
   xmlns="http://www.w3.org/2000/svg"
   xmlns:sodipodi="http://sodipodi.sourceforge.net/DTD/sodipodi-0.dtd"
   xmlns:inkscape="http://www.inkscape.org/namespaces/inkscape"
   width="2480"
   height="2941"
   viewBox="0 0 2480 2941"
   version="1.1"
   id="svg4757"
   sodipodi:docname="githubFinal.svg"
   inkscape:version="0.92.4 (5da689c313, 2019-01-14)">
  <metadata
     id="metadata4763">
    <rdf:RDF>
      <cc:Work
         rdf:about="">
        <dc:format>image/svg+xml</dc:format>
        <dc:type
           rdf:resource="http://purl.org/dc/dcmitype/StillImage" />
        <dc:title></dc:title>
      </cc:Work>
    </rdf:RDF>
  </metadata>
  <defs
     id="defs4761" />
  <sodipodi:namedview
     pagecolor="#ffffff"
     bordercolor="#666666"
     borderopacity="1"
     objecttolerance="10"
     gridtolerance="10"
     guidetolerance="10"
     inkscape:pageopacity="0"
     inkscape:pageshadow="2"
     inkscape:window-width="1920"
     inkscape:window-height="1017"
     id="namedview4759"
     showgrid="false"
     inkscape:lockguides="false"
     inkscape:zoom="0.25"
     inkscape:cx="1121.9177"
     inkscape:cy="1398.9594"
     inkscape:window-x="-8"
     inkscape:window-y="-8"
     inkscape:window-maximized="1"
     inkscape:current-layer="svg4757" />
  <path
     style="fill:#ffffff;stroke:#000000;stroke-width:1px;stroke-linecap:butt;stroke-linejoin:miter;stroke-opacity:1;fill-opacity:1"
     d="m 431.78157,337.09276 0,1943.01704 1537.67113,4.406 22.0297,-1934.20523 z"
     id="path5049"
     inkscape:connector-curvature="0"
     sodipodi:nodetypes="ccccc" />
  <path
     style="fill:#000000"
     d="m 1228.0095,2935.3414 c -5.225,-3.0196 -12.3263,-7.0471 -15.7806,-8.9501 -3.4543,-1.9029 -7.9543,-4.4107 -10,-5.5729 -2.0457,-1.1621 -6.1944,-3.4636 -9.2194,-5.1143 -3.025,-1.6507 -7.525,-4.1249 -10,-5.4982 -2.475,-1.3733 -6.975,-3.8483 -10,-5.5 -8.2728,-4.5171 -13.0717,-7.1787 -17.5,-9.7059 -2.2,-1.2555 -6.025,-3.4182 -8.5,-4.806 -2.475,-1.3878 -6.075,-3.4154 -8,-4.5059 -1.925,-1.0905 -5.975,-3.3333 -9,-4.984 -3.025,-1.6507 -7.525,-4.1249 -10,-5.4982 -2.475,-1.3733 -6.975,-3.8412 -10,-5.4843 -3.025,-1.6431 -6.85,-3.772 -8.5,-4.7309 -1.65,-0.9589 -5.025,-2.8532 -7.5,-4.2095 -2.475,-1.3562 -10.575,-5.8495 -18,-9.9849 -7.425,-4.1354 -15.75,-8.7718 -18.5,-10.3031 -2.75,-1.5313 -7.475,-4.1356 -10.5,-5.7873 -7.6447,-4.1742 -12.8652,-7.0635 -17.2194,-9.5302 -2.0457,-1.159 -6.7707,-3.7832 -10.5,-5.8318 -3.7293,-2.0485 -11.0008,-6.1139 -16.1588,-9.0342 -5.158,-2.9203 -9.5214,-5.3097 -9.6964,-5.3097 -0.1751,0 -2.9299,-1.5093 -6.1218,-3.3541 -3.192,-1.8448 -8.9536,-5.056 -12.8036,-7.136 -3.85,-2.0801 -11.95,-6.572 -18,-9.9819 -6.05,-3.41 -13.475,-7.5583 -16.5,-9.2185 -3.025,-1.6602 -7.525,-4.1455 -10,-5.5228 -2.475,-1.3774 -16.875,-9.3931 -32,-17.8127 -15.125,-8.4196 -29.3,-16.3043 -31.5,-17.5215 -2.2,-1.2173 -28.525,-15.8213 -58.5,-32.4533 -29.975,-16.632 -56.75,-31.4843 -59.5,-33.0051 -16.2387,-8.9803 -35.9729,-19.956 -66.5,-36.9856 -18.975,-10.5852 -36.3,-20.2442 -38.5,-21.4644 -2.2,-1.2202 -24.475,-13.5984 -49.5,-27.5071 -25.025,-13.9087 -47.3,-26.2848 -49.5,-27.5025 -2.2,-1.2176 -16.15,-8.9707 -31,-17.2291 -14.85,-8.2583 -30.15,-16.7298 -34,-18.8254 -3.85,-2.0957 -11.95,-6.5965 -18,-10.002 -6.05,-3.4054 -13.7,-7.6717 -17,-9.4806 -3.3,-1.8089 -9.375,-5.1828 -13.5,-7.4974 -4.125,-2.3146 -10.2,-5.698 -13.5,-7.5185 -3.3,-1.8205 -8.025,-4.4273 -10.5,-5.7928 -2.475,-1.3655 -7.875,-4.3754 -12,-6.6887 -4.125,-2.3133 -9.525,-5.3231 -12,-6.6885 -2.475,-1.3655 -24.975,-13.864 -50,-27.7745 -25.025,-13.9105 -47.525,-26.4164 -50,-27.7909 -8.1585,-4.5308 -67.4264,-37.5311 -71,-39.5328 -8.3788,-4.6931 -29.923,-16.6677 -34.5,-19.1756 -2.75,-1.5069 -10.2875,-5.7009 -16.75,-9.3202 l -11.75,-6.5804 V 1551.024 766.41086 L 74.5148,691.95543 0.02,617.5 0.01,307.25 0,-3 h 1240 1240 v 311.60729 311.60729 l -73,72.49702 -73,72.49702 -0.015,784.14568 c -0.01,431.2801 -0.3472,784.6673 -0.7528,785.3047 -0.4056,0.6375 -3.6612,2.7055 -7.2347,4.5955 -7.8475,4.1507 -17.4097,9.3794 -21.4972,11.7548 -1.65,0.9589 -5.025,2.8605 -7.5,4.2257 -2.475,1.3652 -6.075,3.3723 -8,4.4603 -1.925,1.0879 -6.2,3.4671 -9.5,5.2871 -3.3,1.8201 -9.375,5.2024 -13.5,7.5163 -12.6858,7.1162 -17.2864,9.6756 -23,12.7954 -9.2455,5.0483 -17.8195,9.8172 -27,15.0178 -1.925,1.0905 -5.975,3.3333 -9,4.984 -3.025,1.6507 -7.525,4.1249 -10,5.4982 -2.475,1.3733 -6.975,3.8412 -10,5.4843 -3.025,1.6431 -6.85,3.772 -8.5,4.7309 -1.65,0.9589 -5.1375,2.9241 -7.75,4.3671 -5.1102,2.8226 -12.1278,6.7507 -17.75,9.9355 -1.925,1.0905 -5.975,3.3333 -9,4.984 -3.025,1.6507 -7.525,4.1249 -10,5.4982 -2.475,1.3733 -6.975,3.8483 -10,5.5 -3.025,1.6517 -7.525,4.1267 -10,5.5 -2.475,1.3733 -6.975,3.8412 -10,5.4843 -3.025,1.6431 -6.85,3.772 -8.5,4.7309 -3.3108,1.9241 -10.0781,5.6863 -18.5,10.2848 -9.2455,5.0483 -17.8195,9.8172 -27,15.0178 -1.925,1.0905 -5.975,3.3333 -9,4.984 -3.025,1.6507 -7.525,4.1249 -10,5.4982 -2.475,1.3733 -6.975,3.8412 -10,5.4843 -3.025,1.6431 -6.85,3.772 -8.5,4.7309 -3.5239,2.0479 -10.7912,6.0819 -18.5,10.2691 -3.025,1.6431 -6.85,3.772 -8.5,4.7309 -4.7716,2.773 -13.5199,7.6354 -27,15.0069 -3.3,1.8045 -8.025,4.4046 -10.5,5.7779 -2.475,1.3733 -6.975,3.8412 -10,5.4843 -3.025,1.6431 -6.85,3.7726 -8.5,4.7322 -1.65,0.9596 -5.7,3.2142 -9,5.0102 -3.3,1.7961 -10.95,6.0523 -17,9.4584 -6.05,3.406 -13.475,7.5503 -16.5,9.2095 -3.025,1.6592 -7.3,4.0487 -9.5,5.3101 -2.2,1.2614 -6.7,3.7332 -10,5.4929 -8.7365,4.6585 -17.1953,9.3326 -23.8036,13.1531 -3.1919,1.8453 -5.9382,3.3552 -6.1029,3.3552 -0.1646,0 -8.2844,4.5 -18.044,10 -9.7595,5.5 -17.9059,10 -18.1031,10 -0.1971,0 -2.6538,1.3534 -5.4593,3.0076 -2.8055,1.6542 -7.8878,4.5179 -11.294,6.3639 -3.4062,1.846 -7.9931,4.3788 -10.1931,5.6285 -2.2,1.2497 -6.925,3.8569 -10.5,5.7939 -3.575,1.9369 -8.075,4.4063 -10,5.4875 -6.5018,3.6516 -35.3384,19.6962 -43.75,24.3422 -2.6125,1.443 -6.1,3.4082 -7.75,4.3671 -1.65,0.9589 -5.5875,3.1532 -8.75,4.8764 -14.0635,7.6626 -23.2755,12.7342 -28.75,15.8282 -1.925,1.0879 -6.2,3.4566 -9.5,5.2637 -3.3,1.8071 -7.35,4.0703 -9,5.0292 -1.65,0.959 -6.15,3.4413 -10,5.5163 -3.85,2.075 -10.375,5.6692 -14.5,7.9871 -11.8573,6.6627 -17.0976,9.5796 -23,12.8025 -7.9984,4.3673 -12.9731,7.1237 -17.5,9.6964 -2.2,1.2503 -6.7,3.7258 -10,5.5011 -9.7679,5.2547 -17.5854,9.5647 -24.5,13.5073 -3.575,2.0384 -9.65,5.4099 -13.5,7.4923 -3.85,2.0823 -10.375,5.6825 -14.5,8.0004 -8.2545,4.6383 -14.7629,8.2707 -21.25,11.8598 -3.9324,2.1757 -6.5601,3.6175 -21.75,11.9344 -7.7857,4.2629 -12.5681,6.9355 -19.8461,11.0909 -3.4903,1.9928 -6.5037,3.6233 -6.6964,3.6233 -0.1927,0 -2.962,1.5099 -6.1539,3.3552 -3.192,1.8454 -8.2786,4.705 -11.3036,6.3546 -8.2187,4.4818 -15.1365,8.3262 -18.5,10.2809 -1.65,0.9589 -5.475,3.0869 -8.5,4.7291 -3.025,1.6421 -7.3,4.0112 -9.5,5.2648 -2.2,1.2536 -6.7,3.728 -10,5.4987 -3.3,1.7708 -8.25,4.4915 -11,6.046 -2.75,1.5545 -6.8,3.7589 -9,4.8986 -2.2,1.1396 -4.225,2.2971 -4.5,2.5721 -0.275,0.275 -2.3,1.4572 -4.5,2.627 -7.842,4.1701 -16.0461,8.6445 -19,10.3624 -1.65,0.9596 -5.475,3.0882 -8.5,4.7304 -3.025,1.6421 -7.3,4.0155 -9.5,5.2743 -4.3784,2.5052 -9.071,5.1094 -17.5,9.7118 -3.025,1.6517 -7.525,4.1267 -10,5.5 -5.4635,3.0315 -14.5799,8.0263 -22,12.0537 -3.025,1.6419 -6.558,3.6453 -7.851,4.4521 -1.2931,0.8067 -4.8931,2.8435 -8,4.5261 -3.107,1.6827 -7.5775,4.1175 -9.9345,5.4108 -2.357,1.2933 -4.832,2.3135 -5.5,2.2672 -0.668,-0.046 -5.4895,-2.5548 -10.7145,-5.5744 z m 248.5679,-861.7559 c 0.4289,-1.7088 -0.035,-319.689 -0.4961,-340.0855 -0.6214,-27.4846 -3.6601,-70.6428 -6.0551,-86 -2.0446,-13.1097 -6.7829,-31.6552 -9.9644,-39 -0.4764,-1.1 -1.5392,-3.8 -2.3618,-6 -0.8225,-2.2 -5.1846,-11.6357 -9.6936,-20.9683 -9.0526,-18.7368 -12.3412,-26.5207 -11.5421,-27.3198 0.2904,-0.2904 5.5944,-0.9197 11.7866,-1.3984 17.122,-1.3237 45.88,-7.7011 78.7586,-17.4657 4.675,-1.3884 9.85,-2.8849 11.5,-3.3256 7.0198,-1.8748 37.0355,-12.2386 49.381,-17.0502 25.9311,-10.1067 59.4289,-28.335 85.913,-46.7508 22.7734,-15.8355 37.4907,-28.3153 59.206,-50.2047 23.2605,-23.4469 39.4238,-44.1601 56.8633,-72.8701 5.5679,-9.1662 20.1367,-37.0428 20.1367,-38.5305 0,-0.3112 1.396,-3.6137 3.1022,-7.339 4.4801,-9.7816 13.3394,-36.3784 16.8435,-50.566 9.6661,-39.137 13.6788,-89.9308 12.7356,-161.2109 -0.5032,-38.0315 -1.0119,-49.4133 -3.1957,-71.5 -2.0606,-20.83999 -2.536,-25.31099 -3.4025,-31.99999 -7.7636,-59.9267 -19.3642,-101.6518 -39.2015,-141 -11.4639,-22.7393 -22.3703,-38.5334 -46.0987,-66.75751 -4.2806,-5.09162 -7.7829,-9.63858 -7.7829,-10.10435 0,-0.46578 2.4309,-7.80651 5.402,-16.31273 12.4809,-35.73249 15.9603,-60.11073 15.2466,-106.82542 -0.6305,-41.27028 -4.1725,-65.925 -15.1566,-105.5 -0.9159,-3.3 -2.0392,-7.35 -2.4962,-9 -6.9716,-25.17183 -9.1399,-27.98058 -20.9958,-27.1976 -11.9526,0.78935 -44.4479,12.98942 -72,27.03176 -21.7428,11.08157 -41.4442,27.10937 -73.51,59.80314 -26.784,27.30861 -42.5785,45.85691 -55.0709,64.67277 -0.1133,0.17055 -6.5597,-2.87288 -14.3255,-6.76317 -37.8613,-18.96678 -69.8821,-27.44434 -132.0936,-34.97198 -8.8857,-1.07518 -21.6411,-2.20982 -48.5,-4.31425 -21.676,-1.69835 -117.7673,-1.68038 -138,0.0258 -21.718,1.83144 -34.9695,3.10994 -43.5,4.19687 -4.125,0.52559 -11.55,1.45753 -16.5,2.07098 -11.4218,1.41549 -28.1557,4.28012 -41,7.01868 -5.5,1.17267 -11.8,2.5161 -14,2.98539 -24.2652,5.17617 -51.227,15.78755 -63.4036,24.95381 l -5.4036,4.0677 -2.9382,-2.78995 c -1.616,-1.53447 -8.613,-9.53995 -15.5489,-17.78995 -43.7221,-52.00566 -87.5673,-90.112 -129.3419,-112.41254 -22.4251,-11.97123 -45.434,-16.96739 -59.2478,-12.86514 -6.2713,1.86237 -12.7352,8.90422 -15.8886,17.30912 -6.0194,16.04375 -13.1018,44.43339 -16.5819,66.46856 -0.5646,3.575 -1.6158,10.1 -2.336,14.5 -1.832,11.19204 -1.8048,69.05806 0.037,80 3.1403,18.65122 5.3557,29.68093 8.1347,40.5 9.8924,38.51365 10.3961,40.88473 9.1821,43.22634 -0.6483,1.25051 -4.5611,6.54866 -8.6952,11.77366 -24.3847,30.81921 -41.8908,55.77641 -48.8245,69.60551 -5.0828,10.1376 -11.231,27.8569 -15.7334,45.3444 -3.2495,12.6208 -10.0281,45.6131 -11.3107,55.0501 -0.2616,1.925 -1.1514,7.325 -1.9774,12 -0.8259,4.675 -2.4487,16.15 -3.6062,25.5 -2.5066,20.24879 -2.5351,20.51589 -5.5414,51.99999 -2.9276,30.6592 -4.3668,99.97 -2.5437,122.5 5.1349,63.456 19.802,117.4907 45.3302,167 3.8285,7.425 7.8109,14.6945 8.8497,16.1544 1.0388,1.4599 1.8888,2.9478 1.8888,3.3065 0,0.3587 4.2268,7.0393 9.3929,14.8457 36.0335,54.4492 93.2202,104.8262 151.1335,133.1367 51.8053,25.3247 121.4963,48.2228 164.4736,54.0405 6.325,0.8562 13.3,1.9722 15.5,2.48 2.2,0.5079 5.2375,1.1823 6.75,1.4988 1.5125,0.3165 2.75,1.183 2.75,1.9255 0,1.7048 -8.4903,22.3963 -13.7919,33.6119 -9.334,19.7461 -16.1758,38.8149 -20.6306,57.5 -2.3421,9.8237 -2.8279,12.594 -6.1932,35.3187 -2.1092,14.2425 -3.4918,16.4514 -13.4136,21.4298 -16.9394,8.4996 -30.4844,10.1213 -84.9707,10.1728 -48.0821,0.045 -51.8058,-0.3169 -68.5,-6.6665 -20.6386,-7.8497 -48.9429,-22.474 -63,-32.5508 -23.0943,-16.555 -45.7614,-41.1733 -66.4811,-72.204 -31.2829,-46.8503 -62.8058,-78.4173 -93.2506,-93.3809 -8.6497,-4.2513 -26.5034,-10.2897 -36.2683,-12.2663 -23.3395,-4.7246 -39.3503,-6.7113 -54.5,-6.7629 -18.2922,-0.062 -24.8554,2.4046 -29.7787,11.1924 -3.519,6.2811 8.6662,24.3937 34.7928,51.7177 31.1974,32.6271 47.4419,52.6374 69.0037,85 14.7101,22.0786 24.0056,37.847 36.2544,61.5 18.3609,35.4556 28.1669,50.8916 45.3521,71.3906 18.9442,22.5972 41.7721,42.9948 66.3757,59.3093 31.9735,21.2015 61.5073,34.4174 94.5,42.2872 19.5158,4.6551 45.8616,7.0333 78,7.0411 27.2609,0.01 45.2823,-1.2936 79.6,-5.7429 l 3.5999,-0.4668 0.6304,5.3226 c 0.3467,2.9274 0.6436,48.0182 0.6597,100.2019 0.016,52.1837 0.2766,95.2793 0.5787,95.7682 0.3176,0.5139 90.3602,0.8888 213.4713,0.8888 h 212.9219 z"
     id="path4765"
     inkscape:connector-curvature="0" />
  <path
     style="fill:#d4d4d4;stroke:none;stroke-width:1px;stroke-linecap:butt;stroke-linejoin:miter;stroke-opacity:1;fill-opacity:1"
     d="M 0.02,617.5 0,2255.0133 149.0095,2335.6371 V 766.41086 Z"
     id="path5053"
     inkscape:connector-curvature="0" />
  <path
     style="fill:#d4d4d4;stroke:none;stroke-width:1px;stroke-linecap:butt;stroke-linejoin:miter;stroke-opacity:1;fill-opacity:1"
     d="m 2480,620.21458 -0.089,1633.43572 -146.8163,81.0021 L 2334,765.20862 Z"
     id="path5055"
     inkscape:connector-curvature="0" />
</svg>
