<?xml version="1.0" encoding="UTF-8" standalone="no"?>
<!-- Generator: Adobe Illustrator 16.0.3, SVG Export Plug-In . SVG Version: 6.00 Build 0)  -->

<svg
   xmlns:dc="http://purl.org/dc/elements/1.1/"
   xmlns:cc="http://creativecommons.org/ns#"
   xmlns:rdf="http://www.w3.org/1999/02/22-rdf-syntax-ns#"
   xmlns:svg="http://www.w3.org/2000/svg"
   xmlns="http://www.w3.org/2000/svg"
   xmlns:sodipodi="http://sodipodi.sourceforge.net/DTD/sodipodi-0.dtd"
   xmlns:inkscape="http://www.inkscape.org/namespaces/inkscape"
   version="1.1"
   id="Capa_1"
   x="0px"
   y="0px"
   width="360.05099"
   height="360.061"
   viewBox="0 0 360.05098 360.061"
   enable-background="new 0 0 595.28 841.89"
   xml:space="preserve"
   sodipodi:docname="_LOGO_JNL_FINAL_SVG_SIN_NODOS.svg"
   inkscape:version="0.92.4 (5da689c313, 2019-01-14)"><metadata
   id="metadata883"><rdf:RDF><cc:Work
       rdf:about=""><dc:format>image/svg+xml</dc:format><dc:type
         rdf:resource="http://purl.org/dc/dcmitype/StillImage" /><dc:title></dc:title></cc:Work></rdf:RDF></metadata><defs
   id="defs881"><marker
     inkscape:stockid="Arrow1Lstart"
     orient="auto"
     refY="0.0"
     refX="0.0"
     id="marker1116"
     style="overflow:visible"
     inkscape:isstock="true"><path
       id="path1114"
       d="M 0.0,0.0 L 5.0,-5.0 L -12.5,0.0 L 5.0,5.0 L 0.0,0.0 z "
       style="fill-rule:evenodd;stroke:none;stroke-width:1pt;stroke-opacity:1;fill:#dc5a00;fill-opacity:1"
       transform="scale(0.8) translate(12.5,0)" /></marker><marker
     inkscape:stockid="Arrow1Lstart"
     orient="auto"
     refY="0.0"
     refX="0.0"
     id="Arrow1Lstart"
     style="overflow:visible"
     inkscape:isstock="true"><path
       id="path838"
       d="M 0.0,0.0 L 5.0,-5.0 L -12.5,0.0 L 5.0,5.0 L 0.0,0.0 z "
       style="fill-rule:evenodd;stroke:none;stroke-width:1pt;stroke-opacity:1;fill:#dc5a00;fill-opacity:1"
       transform="scale(0.8) translate(12.5,0)" /></marker></defs><sodipodi:namedview
   pagecolor="#ffffff"
   bordercolor="#666666"
   borderopacity="1"
   objecttolerance="10"
   gridtolerance="10"
   guidetolerance="10"
   inkscape:pageopacity="0"
   inkscape:pageshadow="2"
   inkscape:window-width="1920"
   inkscape:window-height="1017"
   id="namedview879"
   showgrid="false"
   inkscape:zoom="2"
   inkscape:cx="230.49947"
   inkscape:cy="215.61902"
   inkscape:window-x="1912"
   inkscape:window-y="-8"
   inkscape:window-maximized="1"
   inkscape:current-layer="g836"
   fit-margin-top="0"
   fit-margin-left="0"
   fit-margin-right="0"
   fit-margin-bottom="0" />
<g
   id="g876"
   transform="translate(-118.215,-228.1)">
	<g
   id="g874">
		<path
   d="m 478.241,408.127 c 0,59.596 -0.003,119.19 0.022,178.786 0.001,0.967 -0.14,1.248 -1.204,1.248 -119.23,-0.032 -238.461,-0.032 -357.691,-0.003 -0.999,10e-4 -1.153,-0.231 -1.153,-1.18 0.026,-119.23 0.026,-238.46 10e-4,-357.691 0,-0.935 0.134,-1.187 1.146,-1.187 119.23,0.031 238.461,0.031 357.691,0 1.048,0 1.213,0.258 1.213,1.241 -0.028,59.596 -0.025,119.191 -0.025,178.786 z m -100.212,54.695 c 0.179,-1.051 0.245,-2.135 0.293,-3.176 0.151,-3.367 0.394,-6.729 0.557,-10.093 0.155,-3.207 0.37,-6.408 0.538,-9.612 0.18,-3.438 0.43,-6.871 0.599,-10.307 0.16,-3.246 0.374,-6.489 0.531,-9.733 0.167,-3.444 0.359,-6.886 0.539,-10.329 0.17,-3.238 0.433,-6.47 0.594,-9.704 0.174,-3.483 0.38,-6.965 0.549,-10.447 0.149,-3.088 0.358,-6.171 0.521,-9.256 0.183,-3.478 0.428,-6.952 0.604,-10.428 0.162,-3.205 0.385,-6.406 0.536,-9.609 0.162,-3.447 0.326,-6.891 0.542,-10.336 0.202,-3.235 0.366,-6.472 0.573,-9.707 0.222,-3.477 0.395,-6.961 0.563,-10.443 0.149,-3.086 0.348,-6.168 0.52,-9.252 0.194,-3.475 0.373,-6.949 0.592,-10.423 0.202,-3.199 0.398,-6.403 0.55,-9.604 0.168,-3.524 0.381,-7.046 0.539,-10.569 0.143,-3.162 0.375,-6.314 0.569,-9.47 0.221,-3.596 0.415,-7.198 0.576,-10.799 0.134,-2.969 0.375,-5.929 0.517,-8.893 0.174,-3.639 0.422,-7.274 0.576,-10.911 0.113,-2.657 0.553,-5.305 0.338,-7.975 -0.006,-0.08 -0.006,-0.161 0.004,-0.24 0.375,-3.232 0.518,-6.477 0.54,-9.729 0.004,-0.533 -0.213,-0.629 -0.699,-0.694 -2.517,-0.336 -5.059,-0.302 -7.584,-0.477 -3.198,-0.223 -6.405,-0.388 -9.61,-0.549 -3.399,-0.171 -6.796,-0.396 -10.192,-0.563 -2.695,-0.133 -5.388,-0.548 -8.099,-0.351 -0.159,0.012 -0.321,0.004 -0.479,-0.014 -3.192,-0.364 -6.396,-0.532 -9.609,-0.524 -0.471,0.001 -0.662,0.105 -0.745,0.646 -0.393,2.553 -0.256,5.134 -0.451,7.698 -0.239,3.155 -0.387,6.324 -0.555,9.486 -0.184,3.438 -0.4,6.871 -0.607,10.306 -0.189,3.161 -0.365,6.324 -0.528,9.486 -0.17,3.283 -0.36,6.563 -0.533,9.845 -0.176,3.318 -0.39,6.63 -0.594,9.945 -0.201,3.281 -0.398,6.566 -0.549,9.851 -0.149,3.288 -0.346,6.57 -0.529,9.854 -0.186,3.317 -0.385,6.632 -0.591,9.948 -0.195,3.158 -0.387,6.32 -0.547,9.481 -0.174,3.443 -0.389,6.886 -0.519,10.329 -0.103,2.699 -0.304,5.398 -0.422,8.095 -0.062,1.425 -0.04,2.905 -0.311,4.336 -1.735,-4.789 -3.516,-9.563 -5.192,-14.373 -1.434,-4.114 -2.9,-8.216 -4.387,-12.313 -2.544,-7.01 -5.009,-14.049 -7.504,-21.078 -1.947,-5.488 -3.898,-10.975 -5.83,-16.468 -2.795,-7.946 -5.577,-15.897 -8.355,-23.85 -0.275,-0.789 -0.661,-1.217 -1.623,-1.215 -19.032,0.03 -38.064,0.029 -57.097,0.003 -0.978,-0.001 -1.199,0.345 -0.978,1.192 -0.295,3.407 0.044,6.819 -0.303,10.247 -0.436,4.304 0.078,8.658 -0.309,13.002 -0.377,4.24 0.08,8.514 -0.268,12.785 -0.362,4.443 0.088,8.919 -0.273,13.388 -0.344,4.245 -0.006,8.515 -0.237,12.785 -0.294,5.447 -0.013,10.922 -0.332,16.38 -0.188,3.216 0.042,6.433 -0.229,9.666 -0.376,4.473 0.078,8.982 -0.33,13.484 -0.373,4.119 0.074,8.271 -0.267,12.422 -0.368,4.483 0.081,9.001 -0.277,13.51 -0.335,4.207 -0.009,8.438 -0.236,12.67 -0.29,5.367 -0.018,10.761 -0.328,16.141 -0.19,3.296 0.14,6.596 -0.241,9.906 -0.339,2.949 0.087,5.942 -0.321,8.927 -0.338,2.47 0.04,4.989 -0.27,7.504 -0.324,2.633 0.04,5.313 -0.277,7.983 -0.299,2.52 0.048,5.076 -0.257,7.629 -0.311,2.598 0.053,5.235 -0.269,7.866 -0.312,2.556 0.063,5.152 -0.277,7.743 -0.334,2.548 -0.02,5.137 -0.284,7.728 -0.321,3.151 -0.039,6.357 -0.341,9.536 -0.194,2.051 -0.021,4.113 -0.219,6.187 -0.275,2.881 -0.153,5.801 -0.278,8.706 -0.173,4.044 -0.266,8.087 -0.55,12.13 -0.259,3.7 -0.722,7.355 -1.436,10.985 -0.796,4.049 -1.943,7.97 -3.935,11.626 -2.932,5.381 -7.645,7.718 -13.533,7.911 -2.068,0.068 -4.157,-0.366 -6.156,-0.985 -5.13,-1.589 -7.969,-5.393 -9.729,-10.207 -2.126,-5.818 -2.805,-11.929 -3.001,-18.022 -0.248,-7.708 -0.216,-15.433 0.449,-23.149 0.35,-4.06 0.458,-8.159 0.56,-12.24 0.082,-3.264 0.515,-6.516 0.319,-9.786 -0.007,-0.119 -0.013,-0.243 0.01,-0.359 0.554,-2.78 -0.01,-5.63 0.52,-8.412 0.101,-0.526 -0.094,-0.793 -0.706,-0.791 -1.465,0.005 -2.924,-0.089 -4.39,-0.209 -2.965,-0.243 -5.953,0.034 -8.936,-0.328 -2.559,-0.31 -5.152,0 -7.748,-0.252 -3.157,-0.308 -6.361,-0.017 -9.543,-0.319 -2.331,-0.222 -4.694,0.236 -7.025,-0.274 -0.559,-0.122 -1.123,-0.055 -1.296,0.671 -0.207,0.874 -0.454,1.74 -0.621,2.621 -0.64,3.378 -1.483,6.714 -2.023,10.114 -0.57,3.593 -1.314,7.158 -1.872,10.752 -0.571,3.685 -0.89,7.405 -1.362,11.104 -0.448,3.521 -0.795,7.079 -0.817,10.624 -0.043,7.229 -0.359,14.471 0.737,21.678 0.453,2.98 0.834,5.975 1.444,8.924 0.807,3.901 1.934,7.712 3.459,11.41 1.238,3.002 2.669,5.885 4.353,8.663 1.73,2.854 3.694,5.524 5.949,7.967 1.779,1.927 3.763,3.641 5.8,5.312 3.715,3.048 7.838,5.412 12.173,7.356 6.61,2.964 13.684,4.304 20.833,5.119 3.58,0.408 7.209,0.369 10.813,0.594 1.053,0.065 2.036,-0.299 3.068,-0.285 3.409,0.043 6.774,-0.324 10.149,-0.815 3.154,-0.459 6.291,-0.957 9.378,-1.729 4.875,-1.219 9.51,-3.083 13.79,-5.71 5.021,-3.081 9.431,-6.895 13.191,-11.461 2.631,-3.194 4.84,-6.654 6.767,-10.294 2.436,-4.601 4.428,-9.391 5.91,-14.392 0.755,-2.549 1.378,-5.126 1.946,-7.721 0.595,-2.721 0.951,-5.481 1.438,-8.217 0.492,-2.761 0.647,-5.546 0.997,-8.313 0.317,-2.507 0.299,-5.048 0.536,-7.571 0.252,-2.681 -0.03,-5.385 0.312,-8.089 0.329,-2.593 -0.024,-5.228 0.266,-7.861 0.322,-2.915 -0.031,-5.877 0.29,-8.823 0.284,-2.604 -0.032,-5.236 0.245,-7.87 0.306,-2.918 -0.037,-5.878 0.285,-8.824 0.284,-2.603 -0.042,-5.231 0.254,-7.865 0.328,-2.91 -0.048,-5.864 0.328,-8.807 0.331,-2.593 -0.028,-5.228 0.268,-7.861 0.328,-2.914 -0.034,-5.876 0.292,-8.822 0.288,-2.603 -0.036,-5.233 0.246,-7.868 0.313,-2.917 -0.036,-5.878 0.284,-8.824 0.282,-2.603 -0.044,-5.231 0.251,-7.864 0.326,-2.91 -0.005,-5.861 0.316,-8.807 0.31,-2.833 -0.157,-5.727 0.373,-8.568 0.994,2.744 1.972,5.495 2.984,8.232 2.469,6.677 4.769,13.414 7.208,20.103 2.367,6.492 4.635,13.022 6.974,19.526 1.858,5.168 3.703,10.342 5.542,15.518 1.937,5.448 3.859,10.902 5.817,16.344 2.195,6.104 4.31,12.236 6.43,18.366 0.291,0.841 0.722,1.239 1.648,1.153 2.347,-0.217 4.685,0.196 7.004,0.384 3.309,0.266 6.629,0.418 9.938,0.669 2.325,0.177 4.678,0.316 7.021,0.404 1.578,0.06 3.188,0.013 4.748,0.237 3.295,0.476 6.618,0.523 9.924,0.772 2.327,0.176 4.676,0.326 7.021,0.396 1.536,0.046 3.092,0.095 4.631,0.223 2.959,0.246 5.904,0.693 8.887,0.461 1.407,0.218 2.838,0.182 4.252,0.302 2.951,0.251 5.919,0.421 8.882,0.583 2.767,0.151 5.527,0.367 8.291,0.532 2.963,0.177 5.922,0.367 8.882,0.58 2.918,0.21 5.843,0.439 8.764,0.546 2.341,0.085 4.669,0.491 7.021,0.329 0.371,-0.025 0.751,0.058 1.154,0.094 0.187,-1.491 0.141,-3.003 0.233,-4.496 0.223,-3.591 0.445,-7.186 0.604,-10.779 0.119,-2.695 0.544,-5.385 0.342,-8.094 -0.008,-0.118 -0.003,-0.241 0.021,-0.357 0.471,-2.342 0.141,-4.741 0.508,-7.092 0.074,-0.474 -0.132,-0.614 -0.639,-0.744 -1.948,-0.496 -3.943,-0.247 -5.909,-0.434 -2.869,-0.271 -5.762,-0.414 -8.645,-0.599 -2.846,-0.182 -5.688,-0.385 -8.533,-0.575 -2.883,-0.193 -5.77,-0.37 -8.654,-0.534 -2.887,-0.163 -5.769,-0.373 -8.653,-0.539 -2.842,-0.163 -5.675,-0.385 -8.512,-0.607 -3.556,-0.278 -7.124,-0.385 -10.688,-0.566 -0.046,-0.166 -0.091,-0.326 -0.136,-0.487 z"
   id="path864"
   style="clip-rule:evenodd;fill:none;fill-opacity:1;fill-rule:evenodd"
   inkscape:connector-curvature="0" />
		
		
		
		
	<g
   id="g836"><path
     sodipodi:nodetypes="csccccccccccccccccccccccccccccccccccccccc"
     inkscape:connector-curvature="0"
     style="clip-rule:evenodd;fill:#dc5a00;fill-opacity:1;fill-rule:evenodd;stroke-width:0.99899906;stroke-miterlimit:4;stroke-dasharray:none"
     id="path866"
     d="m 293.82668,392.69214 c 0,0 -1.58793,73.03705 -3.26,107.628 -0.2695,5.57531 -0.969,14.189 -1.286,16.696 -0.35,2.767 -0.505,5.552 -0.997,8.313 -0.488,2.735 -0.844,5.496 -1.438,8.217 -0.567,2.595 -1.19,5.172 -1.946,7.721 -1.482,5.001 -3.475,9.791 -5.91,14.392 -1.927,3.64 -4.136,7.1 -6.767,10.294 -3.76,4.566 -8.17,8.38 -13.191,11.461 -4.28,2.627 -8.914,4.491 -13.79,5.71 -3.087,0.772 -6.225,1.271 -9.378,1.729 -3.375,0.491 -6.741,0.858 -10.149,0.815 -1.032,-0.014 -2.016,0.351 -3.068,0.285 -3.603,-0.225 -7.232,-0.186 -10.813,-0.594 -7.15,-0.815 -14.223,-2.155 -20.833,-5.119 -4.335,-1.944 -8.458,-4.309 -12.173,-7.356 -2.037,-1.671 -4.021,-3.385 -5.8,-5.312 -2.255,-2.442 -4.219,-5.112 -5.949,-7.967 -1.684,-2.778 -3.114,-5.661 -4.353,-8.663 -1.526,-3.698 -2.653,-7.509 -3.459,-11.41 -0.61,-2.949 -0.991,-5.943 -1.444,-8.924 -1.096,-7.207 -0.78,-14.448 -0.737,-21.678 0.021,-3.545 0.369,-7.104 0.817,-10.624 0.472,-3.699 0.791,-7.42 1.362,-11.104 0.557,-3.594 1.302,-7.159 1.872,-10.752 0.54,-3.4 1.383,-6.736 2.023,-10.114 0.167,-0.881 0.414,-1.747 0.621,-2.621 0.173,-0.726 0.737,-0.793 1.296,-0.671 0,0 14.4735,0.536 17.693,0.593 3.1585,0.0645 18.484,0.794 19.949,0.789 0.612,-0.002 0.807,0.265 0.706,0.791 -0.53,2.782 -2.106,46.238 -1.858,53.946 0.196,6.094 0.875,12.204 3.001,18.022 1.759,4.814 4.598,8.618 9.729,10.207 2,0.619 4.088,1.054 6.156,0.985 5.888,-0.193 10.601,-2.53 13.533,-7.911 1.992,-3.656 3.139,-7.577 3.935,-11.626 0.714,-3.63 1.177,-7.285 1.436,-10.985 0.284,-4.043 0.377,-8.086 0.55,-12.13 0.125,-2.905 6.26332,-245.91614 6.26032,-245.91914 z" /><path
     sodipodi:nodetypes="ccccccc"
     inkscape:connector-curvature="0"
     style="clip-rule:evenodd;fill:#dc5a00;fill-opacity:1;fill-rule:evenodd;stroke-width:0.99899906;stroke-miterlimit:4;stroke-dasharray:none"
     id="path870"
     d="m 378.165,463.309 -39.856,-112.688 5.696,-120.885 c 0.083,-0.54 0.274,-0.645 0.745,-0.646 l 45.57299,2.478 c 0.486,0.065 0.69901,0.694 0.69901,0.694 z" /><path
     sodipodi:nodetypes="ccccsscc"
     inkscape:connector-curvature="0"
     style="clip-rule:evenodd;fill:#dc5a00;fill-opacity:1;fill-rule:evenodd;marker-start:url(#marker1116);stroke-width:0.99899906;stroke-miterlimit:4;stroke-dasharray:none"
     id="path872"
     d="m 388.20656,495.93578 c -0.12,-2.082 -11.24585,-32.60568 -11.24585,-32.60568 3.563,0.182 59.594,3.854 59.594,3.854 0.507,0.13 0.713,0.271 0.639,0.744 l -1.70262,30.6915 c -0.007,0.1264 -0.0452,0.12353 -0.11332,0.11948 l -47.17083,-2.8033 z" /><path
     sodipodi:nodetypes="cccscc"
     inkscape:connector-curvature="0"
     style="clip-rule:evenodd;fill:#ff7f2a;fill-opacity:1;fill-rule:evenodd;stroke:#ff7f2a;stroke-width:0.75514883;stroke-miterlimit:4;stroke-dasharray:none;stroke-opacity:1"
     id="path868"
     d="m 246.167,259.806 c -0.221,-0.847 59.423,-0.769 59.698,0.02 2.778,7.952 83.578,235.927 83.578,235.927 2e-5,3e-5 2e-5,9e-5 -2e-5,9e-5 -1.94554,-0.0186 -60.53116,-3.85961 -60.82198,-4.69909 -2.12,-6.13 -81.316,-228.168 -82.454,-231.248 z" /></g></g>
</g>
</svg>